<svg width="800" height="450" viewBox="0 0 800 450" fill="none" xmlns="http://www.w3.org/2000/svg">
  <rect width="800" height="450" fill="#F9FAFB"/>
  <rect x="50" y="50" width="700" height="60" rx="8" fill="#E5E7EB"/>
  <circle cx="80" cy="80" r="15" fill="#2563EB"/>
  <rect x="110" y="70" width="150" height="20" rx="4" fill="#9CA3AF"/>
  <rect x="50" y="140" width="220" height="260" rx="8" fill="#FFFFFF" stroke="#E5E7EB" stroke-width="2"/>
  <rect x="70" y="160" width="180" height="100" rx="4" fill="#DBEAFE"/>
  <rect x="70" y="280" width="100" height="16" rx="4" fill="#E5E7EB"/>
  <rect x="70" y="310" width="140" height="12" rx="4" fill="#F3F4F6"/>
  <rect x="70" y="340" width="80" height="28" rx="6" fill="#2563EB"/>
  <rect x="290" y="140" width="460" height="120" rx="8" fill="#FFFFFF" stroke="#E5E7EB" stroke-width="2"/>
  <rect x="310" y="160" width="420" height="80" rx="4" fill="#DBEAFE"/>
  <rect x="290" y="280" width="220" height="120" rx="8" fill="#FFFFFF" stroke="#E5E7EB" stroke-width="2"/>
  <rect x="530" y="280" width="220" height="120" rx="8" fill="#FFFFFF" stroke="#E5E7EB" stroke-width="2"/>
  <text x="400" y="230" font-family="sans-serif" font-size="16" fill="#6B7280" text-anchor="middle">>;>2=0 AB>@V=:0 MSportFit</text>
</svg>
